<?xml version="1.0" encoding="UTF-8"?>
<svg version="1.1" xmlns="http://www.w3.org/2000/svg" width="256" height="256">
<path d="M0 0 C2.9029638 1.03015892 5.76757673 2.1332928 8.63232422 3.26544189 C9.71695953 3.68320389 10.80159485 4.10096588 11.9190979 4.53138733 C15.4736364 5.90326996 19.02162077 7.29132884 22.56982422 8.67950439 C25.02819639 9.63159345 27.48702313 10.58250953 29.94628906 11.5322876 C34.35941505 13.23746454 38.77096765 14.94659883 43.18050957 16.66102314 C54.14443003 20.92352998 65.13269363 25.12189271 76.12207031 29.3182373 C80.99380603 31.17920087 85.86407706 33.04397622 90.73388672 34.90997314 C91.56159576 35.22674515 92.38930481 35.54351715 93.24209595 35.86988831 C94.38972916 36.30968269 94.38972916 36.30968269 95.56054688 36.75836182 C96.61740692 37.15878189 96.61740692 37.15878189 97.69561768 37.56729126 C99.25700516 38.18145802 100.78831747 38.87140453 102.30957031 39.5791626 C107.45920924 41.23174169 112.60662235 38.28647104 117.43701172 36.45294189 C118.21177856 36.16220291 118.98654541 35.87146393 119.78479004 35.57191467 C122.33965197 34.61175487 124.89227809 33.64580218 127.44482422 32.67950439 C129.2372406 32.00395997 131.02972207 31.32858823 132.82226562 30.65338135 C145.21418631 25.9792141 157.58383647 21.24728052 169.94482422 16.49200439 C171.15957428 16.02523788 171.15957428 16.02523788 172.39886475 15.54904175 C179.82539438 12.69492777 187.25054592 9.8390422 194.64297485 6.89750671 C196.48787613 6.16371395 198.33472886 5.43483343 200.18164062 4.70611572 C202.35721075 3.84626545 204.52913262 2.9770934 206.69628906 2.09625244 C211.89384534 0.04946626 215.97099107 -1.29856141 221.56982422 -0.69549561 C222.55982422 -0.20049561 222.55982422 -0.20049561 223.56982422 0.30450439 C224.19010947 12.58340521 222.31051988 24.53766471 220.6640625 36.67218018 C220.35133155 39.02378582 220.03932931 41.37548847 219.72799683 43.72727966 C218.88459911 50.08089531 218.03049084 56.43302763 217.17395639 62.78488398 C216.63913269 66.75374639 216.10799043 70.7230986 215.57787704 74.69259262 C215.44552587 75.68361832 215.44552587 75.68361832 215.31050094 76.69466474 C215.13123987 78.03706946 214.95198736 79.37947533 214.77274333 80.72188233 C213.09640521 93.27351832 211.40974087 105.82374963 209.71940325 118.37350689 C208.26929404 129.14145867 206.82779125 139.91053398 205.39257812 150.68048096 C203.72352062 163.20517022 202.04941925 175.72916752 200.36705577 188.25207698 C200.18783258 189.58624185 200.00861494 190.92040746 199.82940292 192.25457382 C199.74123282 192.9109392 199.65306272 193.56730458 199.56222079 194.24355981 C198.94114692 198.86960931 198.32373972 203.49613471 197.70755386 208.12283707 C196.87910909 214.34054668 196.04300611 220.5571786 195.20088577 226.77305031 C194.89259856 229.05803927 194.5870035 231.34339325 194.28424835 233.62912178 C193.87179185 236.73972792 193.44975962 239.84888462 193.025177 242.95785522 C192.90649234 243.87018579 192.78780768 244.78251635 192.66552651 245.72249329 C192.55007575 246.55298089 192.434625 247.3834685 192.31567574 248.23912239 C192.17100229 249.31588114 192.17100229 249.31588114 192.02340615 250.41439259 C191.56982422 252.30450439 191.56982422 252.30450439 189.56982422 255.30450439 C185.43105759 255.89017892 183.36869481 255.88463661 179.94482422 253.39825439 C179.16107422 252.54231689 178.37732422 251.68637939 177.56982422 250.80450439 C176.71130859 249.88282471 175.85279297 248.96114502 174.96826172 248.01153564 C174.17677734 247.11821533 173.38529297 246.22489502 172.56982422 245.30450439 C171.69197266 244.32030518 171.69197266 244.32030518 170.79638672 243.31622314 C169.70022282 242.06766573 168.61202978 240.81207755 167.53076172 239.55059814 C165.01408757 236.66795345 162.42028119 233.86150327 159.81982422 231.05450439 C159.04578247 230.2187085 159.04578247 230.2187085 158.25610352 229.36602783 C157.20661907 228.23298208 156.1570584 227.10000692 155.10742188 225.96710205 C152.73274348 223.39937263 150.36934277 220.8213762 148.00732422 218.24200439 C147.55776367 217.75119385 147.10820312 217.2603833 146.64501953 216.75469971 C145.73951629 215.76599157 144.83407988 214.77722223 143.92871094 213.78839111 C141.64339926 211.29286033 139.35652841 208.79875912 137.06982422 206.30450439 C136.15315018 205.30451115 135.23648351 204.30451115 134.31982422 203.30450439 C133.86607422 202.80950439 133.41232422 202.31450439 132.94482422 201.80450439 C128.81982422 197.30450439 128.81982422 197.30450439 127.44311523 195.80255127 C126.53226325 194.80895344 125.6212944 193.81546273 124.71020508 192.82208252 C122.32857299 190.22502428 119.94938415 187.62578339 117.57373047 185.02325439 C117.08130859 184.48442627 116.58888672 183.94559814 116.08154297 183.39044189 C114.71374365 181.89360491 113.34683381 180.39595526 111.97998047 178.89825439 C109.88894159 176.64793054 107.75936901 174.45848813 105.56982422 172.30450439 C105.05935547 172.87555908 104.54888672 173.44661377 104.02294922 174.03497314 C99.57626615 178.99412855 95.09481465 183.91685141 90.56982422 188.80450439 C87.04283758 192.61433632 83.53472196 196.43787938 80.06982422 200.30450439 C75.63365659 205.25315349 71.12548588 210.13285212 66.61279297 215.01153564 C63.7358766 218.1223328 60.86932805 221.24248785 58.00732422 224.36700439 C57.55760254 224.85797607 57.10788086 225.34894775 56.64453125 225.85479736 C55.7391982 226.84334954 54.83392459 227.83195617 53.92871094 228.82061768 C51.19258786 231.80842868 48.45436888 234.79431911 45.71655273 237.78057861 C43.29976948 240.41683238 40.88359612 243.05364181 38.46826172 245.69122314 C37.70932617 246.51976807 37.70932617 246.51976807 36.93505859 247.36505127 C35.95961371 248.4299865 34.98434631 249.49508434 34.00927734 250.56036377 C29.66981884 255.29723206 29.66981884 255.29723206 26.13232422 255.55450439 C24.95669922 255.47200439 23.78107422 255.38950439 22.56982422 255.30450439 C20.14937757 251.67383441 19.83396282 248.43386995 19.29324341 244.21116638 C19.18001736 243.37630764 19.0667913 242.54144889 18.95013416 241.6812914 C18.57125867 238.87329374 18.20365181 236.06393497 17.8359375 233.25445557 C17.56694807 231.2435112 17.29726775 229.23265915 17.02694702 227.22189331 C16.29250827 221.74387933 15.56779566 216.26461677 14.84474802 210.78508925 C14.08350028 205.02879262 13.31335435 199.27368687 12.54415894 193.51844788 C11.0835613 182.57970978 9.63097778 171.63992291 8.18124092 160.69974071 C6.54720807 148.37167308 4.90446197 136.04477201 3.26086831 123.71797597 C1.25096825 108.6430107 -0.75728152 93.56782726 -2.75924683 78.49180603 C-2.90093493 77.42518405 -3.04262303 76.35856208 -3.18860471 75.25961822 C-3.87213037 70.11262474 -4.55438966 64.96546941 -5.23394585 59.81795025 C-6.36803667 51.23574355 -7.51274542 42.65588006 -8.71881104 34.08346558 C-8.91179956 32.69659683 -9.1045874 31.30970014 -9.29715157 29.92277241 C-9.63611694 27.49389979 -9.9817176 25.0659359 -10.33650017 22.63932323 C-11.37474855 15.15590864 -11.60724852 7.85567096 -11.43017578 0.30450439 C-7.64792656 -1.58662022 -3.94816055 -1.12992991 0 0 Z " fill="#0377BE" transform="translate(22.43017578125,0.69549560546875)"/>
<path d="M0 0 C0.99 0.495 0.99 0.495 2 1 C2.62028525 13.27890082 0.74069566 25.23316032 -0.90576172 37.36767578 C-1.21849267 39.71928142 -1.53049491 42.07098407 -1.84182739 44.42277527 C-2.68522511 50.77639091 -3.53933338 57.12852323 -4.39586782 63.48037958 C-4.93069153 67.44924199 -5.46183378 71.4185942 -5.99194717 75.38808823 C-6.08018129 76.04877203 -6.1684154 76.70945582 -6.25932328 77.39016034 C-6.43858435 78.73256507 -6.61783686 80.07497094 -6.79708089 81.41737793 C-8.47341901 93.96901392 -10.16008335 106.51924523 -11.85042097 119.06900249 C-13.30053018 129.83695427 -14.74203296 140.60602958 -16.17724609 151.37597656 C-17.8463036 163.90066582 -19.52040497 176.42466312 -21.20276845 188.94757259 C-21.38199164 190.28173745 -21.56120928 191.61590306 -21.7404213 192.95006943 C-21.8285914 193.60643481 -21.9167615 194.26280018 -22.00760343 194.93905542 C-22.6286773 199.56510491 -23.2460845 204.19163031 -23.86227036 208.81833267 C-24.69071513 215.03604228 -25.52681811 221.25267421 -26.36893845 227.46854591 C-26.67722566 229.75353488 -26.98282072 232.03888886 -27.28557587 234.32461739 C-27.69803237 237.43522352 -28.1200646 240.54438022 -28.54464722 243.65335083 C-28.72267421 245.02184667 -28.72267421 245.02184667 -28.90429771 246.4179889 C-29.01974846 247.2484765 -29.13519922 248.0789641 -29.25414848 248.934618 C-29.35059745 249.65245716 -29.44704641 250.37029633 -29.54641807 251.1098882 C-30 253 -30 253 -32 256 C-36.13876663 256.58567452 -38.20112941 256.58013221 -41.625 254.09375 C-42.40875 253.2378125 -43.1925 252.381875 -44 251.5 C-44.85851562 250.57832031 -45.71703125 249.65664062 -46.6015625 248.70703125 C-47.39304687 247.81371094 -48.18453125 246.92039063 -49 246 C-49.87785156 245.01580078 -49.87785156 245.01580078 -50.7734375 244.01171875 C-51.8696014 242.76316133 -52.95779444 241.50757316 -54.0390625 240.24609375 C-56.55573665 237.36344906 -59.14954303 234.55699887 -61.75 231.75 C-62.52404175 230.9142041 -62.52404175 230.9142041 -63.3137207 230.06152344 C-64.36320515 228.92847768 -65.41276582 227.79550253 -66.46240234 226.66259766 C-68.83708074 224.09486824 -71.20048145 221.5168718 -73.5625 218.9375 C-74.01206055 218.44668945 -74.46162109 217.95587891 -74.92480469 217.45019531 C-75.83030793 216.46148718 -76.73574434 215.47271783 -77.64111328 214.48388672 C-79.92642496 211.98835593 -82.2132958 209.49425473 -84.5 207 C-85.41667404 206.00000675 -86.3333407 205.00000676 -87.25 204 C-87.930625 203.2575 -87.930625 203.2575 -88.625 202.5 C-90 201 -91.375 199.5 -92.75 198 C-93.20439453 197.50435547 -93.65878906 197.00871094 -94.12695312 196.49804688 C-95.03734558 195.50477374 -95.94750448 194.51128647 -96.85742188 193.51757812 C-99.2431462 190.9127916 -101.63362996 188.31259469 -104.03125 185.71875 C-104.52818359 185.17992187 -105.02511719 184.64109375 -105.53710938 184.0859375 C-106.91936043 182.58742234 -108.30337595 181.09053531 -109.6875 179.59375 C-110.450625 178.7378125 -111.21375 177.881875 -112 177 C-112.61875 176.3090625 -113.2375 175.618125 -113.875 174.90625 C-115 173 -115 173 -114.77539062 171.11572266 C-113.83691351 168.55500392 -112.61390541 167.19914146 -110.71875 165.2421875 C-110.04618164 164.53932617 -109.37361328 163.83646484 -108.68066406 163.11230469 C-107.96104492 162.37399414 -107.24142578 161.63568359 -106.5 160.875 C-105.02526482 159.33668186 -103.55130073 157.79762412 -102.078125 156.2578125 C-101.01368164 155.15034668 -101.01368164 155.15034668 -99.92773438 154.02050781 C-97.65456716 151.63794298 -95.44072079 149.20847556 -93.25 146.75 C-89.91222639 143.00610944 -86.53093731 139.30673043 -83.125 135.625 C-77.85623272 129.92905792 -72.60717932 124.21553532 -67.36767578 118.49267578 C-65.97420848 116.97185124 -64.57912249 115.45252676 -63.18359375 113.93359375 C-58.2247068 108.53437553 -53.28452372 103.12045406 -48.41015625 97.64453125 C-46.57144175 95.62701145 -44.70967164 93.65649167 -42.80859375 91.69921875 C-42.26066162 91.12743896 -41.71272949 90.55565918 -41.14819336 89.96655273 C-40.07442577 88.84825027 -38.99098833 87.73912807 -37.89672852 86.64086914 C-34.62244454 83.207832 -33.28456365 80.75221301 -33 76 C-36.34117127 73.8963074 -39.59369411 72.25768638 -43.28320312 70.85864258 C-44.83267639 70.26706108 -44.83267639 70.26706108 -46.41345215 69.66352844 C-48.08051208 69.03537483 -48.08051208 69.03537483 -49.78125 68.39453125 C-50.94515259 67.95163254 -52.10905518 67.50873383 -53.30822754 67.05241394 C-56.40926557 65.87334918 -59.51180513 64.69841878 -62.61517334 63.5255127 C-65.69393698 62.36084455 -68.77069704 61.1909097 -71.84765625 60.02148438 C-76.62798563 58.20540664 -81.40924726 56.39182073 -86.19140625 54.58056641 C-95.46602973 51.06707787 -104.73326623 47.5342335 -114 44 C-114 43.01 -114 42.02 -114 41 C-107.31271325 38.4369433 -100.62518148 35.87452658 -93.9375 33.3125 C-92.91166809 32.91949707 -91.88583618 32.52649414 -90.82891846 32.12158203 C-77.82493302 27.14014681 -64.81858992 22.16493191 -51.80859375 17.19921875 C-51.18241842 16.96020655 -50.5562431 16.72119434 -49.91109276 16.47493935 C-43.14670063 13.89300554 -36.38198567 11.31191924 -29.61694336 8.73168945 C-27.36702301 7.87321417 -25.11710431 7.01473457 -22.8671875 6.15625 C-21.83899399 5.76430954 -20.81080048 5.37236908 -19.75144958 4.96855164 C-18.80077103 4.605746 -17.85009247 4.24294037 -16.87060547 3.86914062 C-16.04640106 3.55481079 -15.22219666 3.24048096 -14.37301636 2.91662598 C-12.71129716 2.27475304 -11.06294457 1.59768266 -9.42605591 0.89489746 C-6.19382569 -0.29737292 -3.4157747 -0.19334574 0 0 Z " fill="#FCD100" transform="translate(244,0)"/>
<path d="M0 0 C0.83055908 0.32871094 1.66111816 0.65742187 2.5168457 0.99609375 C3.48315918 1.3734668 4.44947266 1.75083984 5.44506836 2.13964844 C6.5167627 2.56665039 7.58845703 2.99365234 8.69262695 3.43359375 C11.04789902 4.35597113 13.40338173 5.27781075 15.7590332 6.19921875 C16.39766296 6.45028381 17.03629272 6.70134888 17.6942749 6.96002197 C25.63914989 10.08332914 33.60913288 13.14127658 41.57803345 16.20263672 C44.06817078 17.15977944 46.55761445 18.11870463 49.046875 19.078125 C49.84117416 19.38391479 50.63547333 19.68970459 51.45384216 20.00476074 C53.02182972 20.60853053 54.58951317 21.21309074 56.15687561 21.81848145 C59.97110664 23.2872765 63.79243757 24.72748232 67.63696289 26.11523438 C68.37196014 26.38273499 69.1069574 26.6502356 69.86422729 26.92584229 C71.24470672 27.42635174 72.62766384 27.92010104 74.01345825 28.40570068 C79.94672312 30.56362279 79.94672312 30.56362279 82.00512695 33.43359375 C82.24207327 36.8298243 81.6065325 38.73025506 79.3918457 41.3203125 C78.00004083 42.69590217 76.58836463 44.0515679 75.16137695 45.390625 C73.26573966 47.18667265 71.56954788 49.00930026 69.88012695 50.99609375 C66.36785649 55.08295224 62.69198578 59.00507607 59.00512695 62.93359375 C53.67177665 68.60805383 53.67177665 68.60805383 48.50512695 74.43359375 C44.56282808 79.01626604 40.39643556 83.39052605 36.26342773 87.80029297 C32.21392067 92.12543785 28.22336097 96.49649706 24.2746582 100.9140625 C21.06187156 104.48075335 17.79918412 108.00049233 14.53833008 111.52319336 C10.31811401 116.08538779 6.13581865 120.68074192 1.96606445 125.2890625 C0.67652261 126.69933834 -0.64361509 128.08233579 -1.99487305 129.43359375 C-2.39577148 128.97210938 -2.79666992 128.510625 -3.2097168 128.03515625 C-10.97358391 119.12695498 -18.92835341 110.40032834 -26.9519043 101.7265625 C-31.19278037 97.14092165 -35.40942153 92.53314458 -39.62719727 87.92626953 C-41.02066456 86.40544499 -42.41575056 84.88612051 -43.8112793 83.3671875 C-48.04010781 78.76285427 -52.25890391 74.1508278 -56.43237305 69.49609375 C-59.88067488 65.65440276 -63.36672793 61.85012796 -66.86987305 58.05859375 C-67.37099609 57.51332031 -67.87211914 56.96804687 -68.38842773 56.40625 C-70.95127002 53.62176537 -73.53557399 50.86477221 -76.1706543 48.1484375 C-76.67677246 47.61847168 -77.18289062 47.08850586 -77.7043457 46.54248047 C-79.09918027 45.08313423 -80.50566022 43.63494428 -81.9128418 42.1875 C-84.20346788 39.15768502 -84.71352501 37.17938434 -84.99487305 33.43359375 C-80.67459876 29.4567906 -76.17276576 27.71923557 -70.75268555 25.74609375 C-69.38928291 25.23671265 -69.38928291 25.23671265 -67.99833679 24.71704102 C-65.04186547 23.61424983 -62.08090625 22.5240692 -59.11987305 21.43359375 C-56.06414676 20.296431 -53.00967898 19.15593039 -49.95521545 18.01538086 C-47.91016147 17.25208241 -45.8646994 16.48987642 -43.8188324 15.72875977 C-34.78744763 12.36736407 -25.79042075 8.92179296 -16.80737305 5.43359375 C-15.50872043 4.93095664 -14.2100555 4.42835135 -12.91137695 3.92578125 C-1.61617261 -0.45888147 -1.61617261 -0.45888147 0 0 Z " fill="#006E7C" transform="translate(129.994873046875,42.56640625)"/>
</svg>
