<?xml version="1.0" encoding="UTF-8"?>
<svg version="1.1" viewBox="0 0 2048 652" width="100" height="50" xmlns="http://www.w3.org/2000/svg">
<path transform="translate(6)" d="m0 0h15l3 3 30 12 25 9 36 14 21 8 30 11 27 11 26 9 29 12 25 9 20 8 7 3 5-1 14-7 26-9 45-18 23-8 27-11 46-17 27-11 26-9 37-15 4-1v-2h14l6 7 1 5-6 45-7 49-3 27-5 39-15 106-5 41-4 32-14 98-8 65-4 31-12 84-4 17-3 6h-15l-7-9-12-14-12-12-9-11-13-13-9-11-15-15-9-11-12-12-7-8-9-10-14-15-9-10-15-16-7-8-11-12-15-16-8-10v-2l-5 1-6 9-16 17-9 10-7 8-10 10-9 11-14 14-7 8-9 10-13 14-7 8-11 12-14 15-11 12-15 16-7 8-12 13-11 12-6 7h-15l-5-14-10-68-6-52-18-127-6-51-10-72-9-63-5-45-13-93-6-42-1-4v-14l4-4z" fill="#0274B9"/>
<path transform="translate(580)" d="m0 0h14l6 7 1 5-6 45-7 49-3 27-5 39-15 106-5 41-4 32-14 98-8 65-4 31-12 84-4 17-3 6h-15l-7-9-12-14-12-12-9-11-13-13-9-11-15-15-9-11-12-12-7-8-9-10-14-15-9-10-15-16-7-8-11-12-15-16-8-10v-2l-2-1 7-6 9-11 10-10 7-8 11-12 7-8 11-12 7-8 10-10 7-8 8-8 7-8 12-13 7-8 9-10 7-8 15-16 8-8 7-8 14-15 10-11 9-11 10-12 3-5 2-9-5-2-14-7-40-15-79-30-39-15-27-10-8-4 5-4 19-8 18-6 45-18 23-8 27-11 46-17 27-11 26-9 37-15 4-1z" fill="#FECD0D"/>
<path transform="translate(300,111)" d="m0 0 9 1 87 33 52 20 43 16 16 7 8 5-1 9-8 11-11 13-12 14-10 10-7 8-14 15-8 8-7 8-13 14-7 8-18 20-11 12-16 17-7 7-9 11-9 9-7 8-9 10-11 12-10 11-7 8-5-2-7-8-11-11-7-8-11-12-7-8-9-10-7-8-18-20-7-7-7-8-14-15-11-12-10-11-7-8-12-13-11-11-7-8-16-17-24-26-7-11-1-8 9-6 34-14 44-17 94-36 21-7z" fill="#026979"/>
<path transform="translate(1323,106)" d="m0 0h86l24 1 18 4 16 8 10 7 7 7 7 14 3 11 1 6-1 16-4 13-7 13-7 7-11 5 2 4 15 8 14 12 6 9 5 12 2 9v16l-4 15-5 10-9 11-9 8-12 6-18 5-23 3h-107l-7-4-7-7-4-7-1-7v-192l3-8 9-10zm32 46v52h49l14-1 11-4 8-6 4-8v-14l-5-10-6-5-9-3-12-1zm2 94-2 1v54h55l19-1 13-4 9-7 4-7 1-4v-8l-4-10-7-7-12-5-6-1-53-1z" fill="#0275BA"/>
<path transform="translate(1113,102)" d="m0 0h32l20 4 19 7 19 10 13 10 12 12 9 12 8 15 7 19 4 16 1 9v20l-3 19-7 20-5 12-8 12-9 11-10 10-13 10-12 7-22 8-16 4-17 2h-16l-17-2-17-5-20-8-10-6-11-9-13-12-9-12-9-16-6-14-5-17-2-14v-16l2-17 5-17 6-13 9-16 8-11 14-14 12-9 16-9 15-6 19-5zm12 48-15 2-13 5-12 8-9 7-10 15-6 14-4 18v15l4 17 5 12 10 16 9 8 14 8 12 5 10 2h21l18-6 13-7 12-11 9-13 5-15 3-14v-18l-4-18-5-13-7-10-10-10-14-9-12-5-9-2z" fill="#0274B9"/>
<path transform="translate(1586,106)" d="m0 0h83l24 1 16 3 15 6 14 8 10 9 7 10 6 13 4 15 1 9v13l-2 13-5 15-8 15-8 8-14 10-11 5 6 8 8 9 9 11 9 10 11 18 2 5v9l-5 9-6 7-9 4-6 1-8-2-9-5-8-7-10-13-9-11-14-18-11-14-7-9-3-2h-40v55l-3 10-7 9-9 5-2 1h-10l-10-5-8-7-4-7-1-7v-193l3-9 9-10zm33 47-1 1v69h58l15-3 10-5 6-7 3-8 2-10-1-11-4-10-7-8-10-5-9-2z" fill="#0274B9"/>
<path transform="translate(1922,102)" d="m0 0h15l9 3 10 9 9 14 12 28 13 29 10 23 11 25 11 24 8 20 15 31 3 7v20l-5 5-10 7-9 3-9-2-8-5-7-8-18-41v-2l-105 1-12 27-8 16-8 9-11 5-10-2-7-4-7-6-5-11 3-12 15-33 8-19 13-28 13-31 13-28 12-29 13-27 8-10 6-5zm6 66-2 2-5 15-11 25-10 25-3 8v3h65l-22-55-9-22z" fill="#0274B9"/>
<path transform="translate(844,102)" d="m0 0h34l21 4 16 6 16 8 10 7 7 8 3 7v10l-6 12-6 5-13 5-7-1-10-4-20-12-12-4-14-2-17 1-13 4-16 10-9 8-9 15-5 12-3 13-1 17 3 17 5 14 9 15 6 7 14 9 11 5 13 3h21l17-5 15-8 14-9 5-2h9l10 5 7 7 3 8v11l-6 10-10 9-14 9-14 6-20 6-22 3h-18l-16-2-20-6-18-8-11-8-14-12-10-11-9-15-8-16-6-18-3-17v-21l2-14 6-20 9-19 10-16 5-6h2l2-4 8-7 10-8 14-8 19-8 17-4z" fill="#0274B9"/>
<path transform="translate(1277,433)" d="m0 0 5 1 5 4 9 12 11 13 14 18 13 16 9 12 12 15 12 16v-105h11v120l-2 5-6-2-11-13-11-14-13-16-13-17-11-14-10-12-12-16-4-5-1 107h-10l-1-1v-114l1-7z" fill="#0275BA"/>
<path transform="translate(946,434)" d="m0 0h44l13 2 16 8 12 11 6 7 6 10 5 15v17l-4 15-6 11-11 12-8 7-10 5-16 4-11 1h-37l-4-2-1-2-1-11v-107l2-2zm5 9-1 1v105l2 1h34l17-3 12-6 11-10 6-10 4-11 1-8v-10l-3-14-6-12-7-8-10-7-10-5-8-2-9-1z" fill="#0274B9"/>
<path transform="translate(1123,434)" d="m0 0h82v8l-1 1h-77v48h69l1 2v7l-1 1-27 1h-42v46l4 1h74l1 9-1 1h-84l-3-2-2-14v-105l2-3z" fill="#0274B9"/>
<path transform="translate(1640,430)" d="m0 0 4 2 13 25 13 29 13 28 8 18 10 22 1 4-1 1h-6l-5-5-6-12-7-16-74-1-2 6-12 26-2 2h-6l1-8 5-13 14-30 17-37 11-23 8-15zm-1 17-3 4-9 22-16 34-3 6v2l60 1 4-2-17-38-9-21-5-8z" fill="#0274B9"/>
<path transform="translate(495,185)" d="m0 0 8 1 12 7-1 9-8 11-11 13-12 14-10 10-7 8-14 15-8 8-7 8-13 14-7 8-18 20-11 12-16 17-7 7-9 11-9 9-7 8-9 10-11 12-10 11-7 8h-2v-5l7-9 2-1 4-7 7-6h2v-2h2l2-4 7-9 5-5 4-2 2-5h2l2-4 6-9 3-4h2l2-4 3-5 11-7 13-14 5-5 11-14 5-6 8-7 6-8 6-11 5-6 14-10h2v-2l3-3h2l2-4 4-6 3-3h2l2-5 10-14 5-4 4-8 5-12 4-8 2-1 2-5-5-5z" fill="#025978"/>
<path transform="translate(1767,434)" d="m0 0h6l1 1v114h72l1 2v6l-1 2h-77l-5-3-1-5v-116z" fill="#0275BA"/>
<path transform="translate(1440,434)" d="m0 0h95l2 2v5l-5 2h-38l-1 115h-8l-1-1-1-7-1-106-41-1-2-3v-5z" fill="#0274B9"/>
<path transform="translate(300,111)" d="m0 0 9 1 87 33 52 20 40 15 1 3-7-1-21-8-8-3-11-4-17-6-18-7-12-5-18-6h-2v-2h-6l-2-1v-2l-5-1-15-6-16-6-15-5-15-6z" fill="#025B7B"/>
<path transform="translate(125,243)" d="m0 0 7 6 9 10 29 29 1 4-4-2-15-16-10-10-7-8-10-11z" fill="#025975"/>
<path transform="translate(222,348)" d="m0 0 3 1 7 8 9 10v2l-3-1-7-8-9-10z" fill="#025B75"/>
<path transform="translate(125,243)" d="m0 0 7 6 5 6-1 2-7-7-4-5z" fill="#025C76"/>
</svg>
